<?xml version="1.0" encoding="UTF-8"?>
<!DOCTYPE svg PUBLIC "-//W3C//DTD SVG 1.1//EN" "http://www.w3.org/Graphics/SVG/1.1/DTD/svg11.dtd">
<svg version="1.1" xmlns="http://www.w3.org/2000/svg" xmlns:xlink="http://www.w3.org/1999/xlink" x="0px" y="0px" width="1080" height="432" viewBox="0, 0, 1080, 432">
  <g id="Layer 1">
    <g>
      <path d="M36.5,36.5 L180.5,36.5 L180.5,108.5 L36.5,108.5 z" fill="#FFFFFF"/>
      <path d="M36.5,36.5 L180.5,36.5 L180.5,108.5 L36.5,108.5 z" fill-opacity="0" stroke="#000000" stroke-width="1"/>
    </g>
    <text transform="matrix(1, 0, 0, 1, 108, 72)">
      <tspan x="-36.396" y="7" font-family="PTSans-Bold" font-size="24" fill="#000000">Handle</tspan>
    </text>
    <g>
      <path d="M36.5,180.5 L180.5,180.5 L180.5,252.5 L36.5,252.5 z" fill="#FFFFFF"/>
      <path d="M36.5,180.5 L180.5,180.5 L180.5,252.5 L36.5,252.5 z" fill-opacity="0" stroke="#000000" stroke-width="1"/>
    </g>
    <text transform="matrix(1, 0, 0, 1, 108, 216)">
      <tspan x="-40.92" y="7" font-family="PTSans-Bold" font-size="24" fill="#000000">Request</tspan>
    </text>
    <g>
      <path d="M36.5,324.5 L180.5,324.5 L180.5,396.5 L36.5,396.5 z" fill="#FFFFFF"/>
      <path d="M36.5,324.5 L180.5,324.5 L180.5,396.5 L36.5,396.5 z" fill-opacity="0" stroke="#000000" stroke-width="1"/>
    </g>
    <text transform="matrix(1, 0, 0, 1, 108, 360)">
      <tspan x="-39.72" y="7" font-family="PTSans-Bold" font-size="24" fill="#000000">Context</tspan>
    </text>
    <g>
      <path d="M108.5,252.5 L108.5,315.5" fill-opacity="0" stroke="#000000" stroke-width="1"/>
      <path d="M105.5,315.5 L108.5,323.5 L111.5,315.5 z" fill="#000000" fill-opacity="1" stroke="#000000" stroke-width="1" stroke-opacity="1"/>
    </g>
    <g>
      <path d="M324.5,180.5 L468.5,180.5 L468.5,252.5 L324.5,252.5 z" fill="#FFFFFF"/>
      <path d="M324.5,180.5 L468.5,180.5 L468.5,252.5 L324.5,252.5 z" fill-opacity="0" stroke="#000000" stroke-width="1"/>
    </g>
    <text transform="matrix(1, 0, 0, 1, 396, 216)">
      <tspan x="-31.5" y="7" font-family="PTSans-Bold" font-size="24" fill="#000000">Buffer</tspan>
    </text>
    <g>
      <path d="M324.5,215.219 L186.892,78.835" fill-opacity="0" stroke="#000000" stroke-width="1"/>
      <path d="M189.004,76.705 L181.21,73.204 L184.781,80.966 z" fill="#000000" fill-opacity="1" stroke="#000000" stroke-width="1" stroke-opacity="1"/>
    </g>
    <g>
      <path d="M324.5,215.219 L189.5,215.219" fill-opacity="0" stroke="#000000" stroke-width="1"/>
      <path d="M189.5,212.219 L181.5,215.219 L189.5,218.219 z" fill="#000000" fill-opacity="1" stroke="#000000" stroke-width="1" stroke-opacity="1"/>
    </g>
    <g>
      <path d="M324.5,215.219 L186.892,351.625" fill-opacity="0" stroke="#000000" stroke-width="1"/>
      <path d="M184.78,349.494 L181.21,357.257 L189.004,353.756 z" fill="#000000" fill-opacity="1" stroke="#000000" stroke-width="1" stroke-opacity="1"/>
    </g>
    <g>
      <path d="M612.5,180.5 L756.5,180.5 L756.5,252.5 L612.5,252.5 z" fill="#FFFFFF"/>
      <path d="M612.5,180.5 L756.5,180.5 L756.5,252.5 L612.5,252.5 z" fill-opacity="0" stroke="#000000" stroke-width="1"/>
    </g>
    <text transform="matrix(1, 0, 0, 1, 684, 216)">
      <tspan x="-61.476" y="7" font-family="PTSans-Bold" font-size="24" fill="#000000">Source/Sink</tspan>
    </text>
    <g>
      <path d="M900.5,180.5 L1044.5,180.5 L1044.5,252.5 L900.5,252.5 z" fill="#FFFFFF"/>
      <path d="M900.5,180.5 L1044.5,180.5 L1044.5,252.5 L900.5,252.5 z" fill-opacity="0" stroke="#000000" stroke-width="1"/>
    </g>
    <text transform="matrix(1, 0, 0, 1, 972, 216.5)">
      <tspan x="-38.592" y="7" font-family="PTSans-Bold" font-size="24" fill="#000000">Iterator</tspan>
    </text>
    <g>
      <path d="M612.5,215.516 L477.5,215.516" fill-opacity="0" stroke="#000000" stroke-width="1"/>
      <path d="M477.5,212.516 L469.5,215.516 L477.5,218.516 z" fill="#000000" fill-opacity="1" stroke="#000000" stroke-width="1" stroke-opacity="1"/>
    </g>
    <g>
      <path d="M900.5,215.516 L765.5,215.516" fill-opacity="0" stroke="#000000" stroke-width="1"/>
      <path d="M765.5,212.516 L757.5,215.516 L765.5,218.516 z" fill="#000000" fill-opacity="1" stroke="#000000" stroke-width="1" stroke-opacity="1"/>
    </g>
    <g>
      <path d="M108.5,180.5 L108.5,117.5" fill-opacity="0" stroke="#000000" stroke-width="1"/>
      <path d="M111.5,117.5 L108.5,109.5 L105.5,117.5 z" fill="#000000" fill-opacity="1" stroke="#000000" stroke-width="1" stroke-opacity="1"/>
    </g>
  </g>
  <defs/>
</svg>
